<svg width="25" height="25" viewBox="0 0 25 25" fill="none" xmlns="http://www.w3.org/2000/svg">
<path d="M4.45 20.0014H9.326C9.47735 20.0024 9.62738 19.9709 9.76749 19.9087C9.90761 19.8465 10.035 19.7549 10.1425 19.6391L18.1005 10.9791L21.3665 7.50507C21.4743 7.3889 21.5598 7.25069 21.6182 7.09841C21.6766 6.94613 21.7067 6.7828 21.7067 6.61783C21.7067 6.45286 21.6766 6.28953 21.6182 6.13725C21.5598 5.98497 21.4743 5.84676 21.3665 5.73059L16.4905 0.369641C16.3836 0.252514 16.2564 0.159548 16.1163 0.0961058C15.9761 0.0326633 15.8258 0 15.674 0C15.5222 0 15.3719 0.0326633 15.2317 0.0961058C15.0916 0.159548 14.9644 0.252514 14.8575 0.369641L11.6145 3.90612L3.6335 12.5661C3.52692 12.6829 3.44259 12.8214 3.38536 12.9736C3.32813 13.1259 3.29912 13.2889 3.3 13.4533V18.7518C3.3 19.0832 3.42116 19.4011 3.63683 19.6354C3.85249 19.8698 4.145 20.0014 4.45 20.0014ZM15.674 3.01887L18.9285 6.55535L17.2955 8.32983L14.041 4.79336L15.674 3.01887ZM5.6 13.9657L12.4195 6.55535L15.674 10.0918L8.8545 17.5022H5.6V13.9657ZM22.85 22.5007H2.15C1.845 22.5007 1.55249 22.6324 1.33683 22.8667C1.12116 23.1011 1 23.4189 1 23.7504C1 24.0818 1.12116 24.3996 1.33683 24.634C1.55249 24.8683 1.845 25 2.15 25H22.85C23.155 25 23.4475 24.8683 23.6632 24.634C23.8788 24.3996 24 24.0818 24 23.7504C24 23.4189 23.8788 23.1011 23.6632 22.8667C23.4475 22.6324 23.155 22.5007 22.85 22.5007Z" fill="#4C45B5"/>
<rect x="25" y="25" width="25" height="3.125" rx="1.5625" transform="rotate(180 25 25)" fill="#D9D9D9"/>
<rect x="25" y="25" width="25" height="3.125" rx="1.5625" transform="rotate(180 25 25)" fill="#4C45B5"/>
<rect x="25" y="25" width="25" height="3.125" rx="1.5625" transform="rotate(180 25 25)" fill="#DA4C4C"/>
</svg>
