<svg width="24" height="35" viewBox="0 0 24 35" fill="none" xmlns="http://www.w3.org/2000/svg">
<path d="M0 17.4946C0 17.9586 0.154071 18.4036 0.428319 18.7317C0.702567 19.0598 1.07453 19.2441 1.46237 19.2441H12.5618L9.19832 23.2504C9.06125 23.413 8.95246 23.6065 8.87822 23.8197C8.80398 24.0329 8.76575 24.2615 8.76575 24.4925C8.76575 24.7234 8.80398 24.9521 8.87822 25.1653C8.95246 25.3785 9.06125 25.572 9.19832 25.7346C9.33426 25.8986 9.49601 26.0287 9.67421 26.1175C9.85241 26.2064 10.0436 26.2521 10.2366 26.2521C10.4297 26.2521 10.6208 26.2064 10.799 26.1175C10.9772 26.0287 11.1389 25.8986 11.2749 25.7346L17.1244 18.7367C17.2575 18.5704 17.3619 18.3742 17.4315 18.1594C17.5777 17.7335 17.5777 17.2558 17.4315 16.8298C17.3619 16.6151 17.2575 16.4189 17.1244 16.2525L11.2749 9.25466C11.1385 9.09154 10.9767 8.96215 10.7985 8.87387C10.6204 8.78559 10.4294 8.74016 10.2366 8.74016C10.0438 8.74016 9.85284 8.78559 9.67469 8.87387C9.49654 8.96215 9.33467 9.09154 9.19832 9.25466C9.06197 9.41778 8.95381 9.61142 8.88002 9.82455C8.80623 10.0377 8.76825 10.2661 8.76825 10.4968C8.76825 10.7275 8.80623 10.9559 8.88002 11.169C8.95381 11.3821 9.06197 11.5758 9.19832 11.7389L12.5618 15.7452H1.46237C1.07453 15.7452 0.702567 15.9295 0.428319 16.2576C0.154071 16.5857 0 17.0306 0 17.4946ZM19.0108 0H4.38712C3.22358 0 2.1077 0.552954 1.28496 1.53722C0.462213 2.52148 0 3.85643 0 5.24839V10.4968C0 10.9608 0.154071 11.4057 0.428319 11.7338C0.702567 12.0619 1.07453 12.2462 1.46237 12.2462C1.85022 12.2462 2.22218 12.0619 2.49642 11.7338C2.77067 11.4057 2.92474 10.9608 2.92474 10.4968V5.24839C2.92474 4.7844 3.07881 4.33942 3.35306 4.01133C3.62731 3.68324 3.99927 3.49893 4.38712 3.49893H19.0108C19.3987 3.49893 19.7706 3.68324 20.0449 4.01133C20.3191 4.33942 20.4732 4.7844 20.4732 5.24839V29.7409C20.4732 30.2049 20.3191 30.6498 20.0449 30.9779C19.7706 31.306 19.3987 31.4903 19.0108 31.4903H4.38712C3.99927 31.4903 3.62731 31.306 3.35306 30.9779C3.07881 30.6498 2.92474 30.2049 2.92474 29.7409V24.4925C2.92474 24.0285 2.77067 23.5835 2.49642 23.2554C2.22218 22.9273 1.85022 22.743 1.46237 22.743C1.07453 22.743 0.702567 22.9273 0.428319 23.2554C0.154071 23.5835 0 24.0285 0 24.4925V29.7409C0 31.1328 0.462213 32.4678 1.28496 33.452C2.1077 34.4363 3.22358 34.9893 4.38712 34.9893H19.0108C20.1744 34.9893 21.2902 34.4363 22.113 33.452C22.9357 32.4678 23.3979 31.1328 23.3979 29.7409V5.24839C23.3979 3.85643 22.9357 2.52148 22.113 1.53722C21.2902 0.552954 20.1744 0 19.0108 0Z" fill="#4C45B5"/>
<path d="M0 17.4946C0 17.9586 0.154071 18.4036 0.428319 18.7317C0.702567 19.0598 1.07453 19.2441 1.46237 19.2441H12.5618L9.19832 23.2504C9.06125 23.413 8.95246 23.6065 8.87822 23.8197C8.80398 24.0329 8.76575 24.2615 8.76575 24.4925C8.76575 24.7234 8.80398 24.9521 8.87822 25.1653C8.95246 25.3785 9.06125 25.572 9.19832 25.7346C9.33426 25.8986 9.49601 26.0287 9.67421 26.1175C9.85241 26.2064 10.0436 26.2521 10.2366 26.2521C10.4297 26.2521 10.6208 26.2064 10.799 26.1175C10.9772 26.0287 11.1389 25.8986 11.2749 25.7346L17.1244 18.7367C17.2575 18.5704 17.3619 18.3742 17.4315 18.1594C17.5777 17.7335 17.5777 17.2558 17.4315 16.8298C17.3619 16.6151 17.2575 16.4189 17.1244 16.2525L11.2749 9.25466C11.1385 9.09154 10.9767 8.96215 10.7985 8.87387C10.6204 8.78559 10.4294 8.74016 10.2366 8.74016C10.0438 8.74016 9.85284 8.78559 9.67469 8.87387C9.49654 8.96215 9.33467 9.09154 9.19832 9.25466C9.06197 9.41778 8.95381 9.61142 8.88002 9.82455C8.80623 10.0377 8.76825 10.2661 8.76825 10.4968C8.76825 10.7275 8.80623 10.9559 8.88002 11.169C8.95381 11.3821 9.06197 11.5758 9.19832 11.7389L12.5618 15.7452H1.46237C1.07453 15.7452 0.702567 15.9295 0.428319 16.2576C0.154071 16.5857 0 17.0306 0 17.4946ZM19.0108 0H4.38712C3.22358 0 2.1077 0.552954 1.28496 1.53722C0.462213 2.52148 0 3.85643 0 5.24839V10.4968C0 10.9608 0.154071 11.4057 0.428319 11.7338C0.702567 12.0619 1.07453 12.2462 1.46237 12.2462C1.85022 12.2462 2.22218 12.0619 2.49642 11.7338C2.77067 11.4057 2.92474 10.9608 2.92474 10.4968V5.24839C2.92474 4.7844 3.07881 4.33942 3.35306 4.01133C3.62731 3.68324 3.99927 3.49893 4.38712 3.49893H19.0108C19.3987 3.49893 19.7706 3.68324 20.0449 4.01133C20.3191 4.33942 20.4732 4.7844 20.4732 5.24839V29.7409C20.4732 30.2049 20.3191 30.6498 20.0449 30.9779C19.7706 31.306 19.3987 31.4903 19.0108 31.4903H4.38712C3.99927 31.4903 3.62731 31.306 3.35306 30.9779C3.07881 30.6498 2.92474 30.2049 2.92474 29.7409V24.4925C2.92474 24.0285 2.77067 23.5835 2.49642 23.2554C2.22218 22.9273 1.85022 22.743 1.46237 22.743C1.07453 22.743 0.702567 22.9273 0.428319 23.2554C0.154071 23.5835 0 24.0285 0 24.4925V29.7409C0 31.1328 0.462213 32.4678 1.28496 33.452C2.1077 34.4363 3.22358 34.9893 4.38712 34.9893H19.0108C20.1744 34.9893 21.2902 34.4363 22.113 33.452C22.9357 32.4678 23.3979 31.1328 23.3979 29.7409V5.24839C23.3979 3.85643 22.9357 2.52148 22.113 1.53722C21.2902 0.552954 20.1744 0 19.0108 0Z" fill="black" fill-opacity="0.2"/>
<rect width="8.13501" height="3.39341" rx="1.6967" transform="matrix(0.641693 -0.766962 0.710791 0.703403 8.08514 24.5974)" fill="#DA4C4C"/>
</svg>
