<svg width="28" height="25" viewBox="0 0 28 25" fill="none" xmlns="http://www.w3.org/2000/svg">
<mask id="path-1-inside-1_243_363" fill="white">
<rect x="5" width="18" height="4" rx="1"/>
</mask>
<rect x="5" width="18" height="4" rx="1" fill="#D9D9D9"/>
<rect x="5" width="18" height="4" rx="1" fill="#2BA333"/>
<rect x="5" width="18" height="4" rx="1" stroke="#4C45B5" stroke-width="4" mask="url(#path-1-inside-1_243_363)"/>
<rect x="5" width="18" height="4" rx="1" stroke="#2BA333" stroke-width="4" mask="url(#path-1-inside-1_243_363)"/>
<path d="M0 6.6875C0 5.58293 0.895431 4.6875 2 4.6875H26C27.1046 4.6875 28 5.58293 28 6.6875V20.3125H0V6.6875Z" fill="#2BA333"/>
<path d="M7.6001 15.0625H20.3999C20.9522 15.0625 21.3999 15.5102 21.3999 16.0625V24H6.6001V16.0625C6.6001 15.5102 7.04781 15.0625 7.6001 15.0625Z" fill="white"/>
<path d="M7.6001 15.0625H20.3999C20.9522 15.0625 21.3999 15.5102 21.3999 16.0625V24H6.6001V16.0625C6.6001 15.5102 7.04781 15.0625 7.6001 15.0625Z" stroke="black" stroke-width="2"/>
<path d="M7.6001 15.0625H20.3999C20.9522 15.0625 21.3999 15.5102 21.3999 16.0625V24H6.6001V16.0625C6.6001 15.5102 7.04781 15.0625 7.6001 15.0625Z" stroke="#2BA333" stroke-width="2"/>
<rect x="22" y="8" width="3" height="3" rx="1.5" fill="white"/>
</svg>
