<svg width="15" height="15" viewBox="0 0 15 15" fill="none" xmlns="http://www.w3.org/2000/svg">
<path fill-rule="evenodd" clip-rule="evenodd" d="M12 7.50149H14.25C14.4489 7.50149 14.6397 7.58049 14.7803 7.72112C14.921 7.86174 15 8.05247 15 8.25134V12.7504C15 13.3471 14.7629 13.9192 14.341 14.3411C13.919 14.763 13.3467 15 12.75 15H2.25001C1.65327 15 1.08097 14.763 0.659015 14.3411C0.237059 13.9192 5.91216e-06 13.3471 5.91216e-06 12.7504V0.752831C-0.000518763 0.6207 0.0338871 0.490776 0.0997395 0.376216C0.165592 0.261655 0.260553 0.166526 0.375006 0.100461C0.48902 0.0346479 0.618353 0 0.750006 0C0.881658 0 1.01099 0.0346479 1.12501 0.100461L3.375 1.3902L5.625 0.100461C5.73902 0.0346479 5.86835 0 6 0C6.13166 0 6.26099 0.0346479 6.375 0.100461L8.625 1.3902L10.875 0.100461C10.989 0.0346479 11.1183 0 11.25 0C11.3817 0 11.511 0.0346479 11.625 0.100461C11.7395 0.166526 11.8344 0.261655 11.9003 0.376216C11.9661 0.490776 12.0005 0.6207 12 0.752831V7.50149ZM1.71968 13.2807C1.86033 13.4213 2.05109 13.5003 2.25001 13.5003H10.635C10.5477 13.2598 10.502 13.0063 10.5 12.7504V2.05007L9 2.9049C8.88425 2.96535 8.75559 2.99692 8.625 2.99692C8.49441 2.99692 8.36576 2.96535 8.25 2.9049L6 1.61516L3.75 2.9049C3.63425 2.96535 3.5056 2.99692 3.375 2.99692C3.24441 2.99692 3.11576 2.96535 3 2.9049L1.50001 2.05007V12.7504C1.50001 12.9493 1.57902 13.14 1.71968 13.2807ZM13.2803 13.2807C13.421 13.14 13.5 12.9493 13.5 12.7504V9.00119H12V12.7504C12 12.9493 12.079 13.14 12.2197 13.2807C12.3603 13.4213 12.5511 13.5003 12.75 13.5003C12.9489 13.5003 13.1397 13.4213 13.2803 13.2807Z" fill="#4C45B5"/>
<path d="M5.625 6.37671H7.5C7.69892 6.37671 7.88968 6.29771 8.03033 6.15709C8.17099 6.01646 8.25 5.82574 8.25 5.62686C8.25 5.42799 8.17099 5.23726 8.03033 5.09664C7.88968 4.95601 7.69892 4.87701 7.5 4.87701H6.75V4.50209C6.75 4.30321 6.67099 4.11249 6.53033 3.97186C6.38968 3.83124 6.19892 3.75224 6 3.75224C5.80109 3.75224 5.61033 3.83124 5.46967 3.97186C5.32902 4.11249 5.25 4.30321 5.25 4.50209V4.9145C4.79432 5.00702 4.38928 5.26551 4.1135 5.63981C3.83772 6.01411 3.71088 6.4775 3.75761 6.94004C3.80434 7.40257 4.0213 7.83125 4.36638 8.14285C4.71145 8.45445 5.16002 8.62673 5.625 8.62627H6.375C6.47446 8.62627 6.56984 8.66577 6.64017 8.73608C6.71049 8.80639 6.75 8.90176 6.75 9.00119C6.75 9.10063 6.71049 9.19599 6.64017 9.2663C6.56984 9.33662 6.47446 9.37612 6.375 9.37612H4.5C4.30109 9.37612 4.11033 9.45512 3.96967 9.59574C3.82902 9.73637 3.75 9.9271 3.75 10.126C3.75 10.3248 3.82902 10.5156 3.96967 10.6562C4.11033 10.7968 4.30109 10.8758 4.5 10.8758H5.25V11.2507C5.25 11.4496 5.32902 11.6403 5.46967 11.781C5.61033 11.9216 5.80109 12.0006 6 12.0006C6.19892 12.0006 6.38968 11.9216 6.53033 11.781C6.67099 11.6403 6.75 11.4496 6.75 11.2507V10.8383C7.20569 10.7458 7.61073 10.4873 7.88651 10.113C8.16229 9.73873 8.28912 9.27533 8.24239 8.81279C8.19566 8.35026 7.9787 7.92158 7.63363 7.60998C7.28855 7.29839 6.83998 7.1261 6.375 7.12656H5.625C5.52555 7.12656 5.43016 7.08706 5.35984 7.01675C5.28951 6.94644 5.25 6.85108 5.25 6.75164C5.25 6.6522 5.28951 6.55684 5.35984 6.48653C5.43016 6.41621 5.52555 6.37671 5.625 6.37671Z" fill="#DA4C4C"/>
</svg>
