<svg width="23" height="23" viewBox="0 0 23 23" fill="none" xmlns="http://www.w3.org/2000/svg">
<path d="M22.3672 22.3672C21.5235 23.2109 20.1559 23.2109 19.3122 22.3672L15.5 18.555C13.9327 19.5604 12.0801 20.1595 10.0798 20.1595C4.51326 20.1595 0 15.6468 0 10.0797C0 4.51259 4.51326 0 10.0798 0C15.647 0 20.1595 4.5125 20.1595 10.0797C20.1595 12.0794 19.5597 13.9327 18.555 15.5007L22.3672 19.3129C23.2109 20.1566 23.2109 21.5235 22.3672 22.3672ZM10.0798 2.8799C6.10368 2.8799 2.87994 6.10291 2.87994 10.0797C2.87994 14.0564 6.10372 17.2795 10.0798 17.2795C14.0565 17.2795 17.2795 14.0564 17.2795 10.0797C17.2795 6.10291 14.0565 2.8799 10.0798 2.8799Z" fill="black"/>
<path d="M22.3672 22.3672C21.5235 23.2109 20.1559 23.2109 19.3122 22.3672L15.5 18.555C13.9327 19.5604 12.0801 20.1595 10.0798 20.1595C4.51326 20.1595 0 15.6468 0 10.0797C0 4.51259 4.51326 0 10.0798 0C15.647 0 20.1595 4.5125 20.1595 10.0797C20.1595 12.0794 19.5597 13.9327 18.555 15.5007L22.3672 19.3129C23.2109 20.1566 23.2109 21.5235 22.3672 22.3672ZM10.0798 2.8799C6.10368 2.8799 2.87994 6.10291 2.87994 10.0797C2.87994 14.0564 6.10372 17.2795 10.0798 17.2795C14.0565 17.2795 17.2795 14.0564 17.2795 10.0797C17.2795 6.10291 14.0565 2.8799 10.0798 2.8799Z" fill="#4C45B5"/>
<path d="M5 13.6187C5 12.9623 5.76218 12.5908 6.31208 12.9492C8.97954 14.6878 10.9447 14.6494 13.6679 12.9265C14.2327 12.5692 15 12.9534 15 13.6217C15 13.8879 14.87 14.1381 14.6483 14.2854C11.1735 16.5951 9.00348 16.5508 5.36132 14.2765C5.13496 14.1351 5 13.8856 5 13.6187Z" fill="#D9D9D9"/>
<path d="M5 13.6187C5 12.9623 5.76218 12.5908 6.31208 12.9492C8.97954 14.6878 10.9447 14.6494 13.6679 12.9265C14.2327 12.5692 15 12.9534 15 13.6217C15 13.8879 14.87 14.1381 14.6483 14.2854C11.1735 16.5951 9.00348 16.5508 5.36132 14.2765C5.13496 14.1351 5 13.8856 5 13.6187Z" fill="#DA4C4C"/>
</svg>
