<svg width="18" height="18" viewBox="0 0 18 18" fill="none" xmlns="http://www.w3.org/2000/svg">
<g clip-path="url(#clip0_84_233)">
<path d="M8.99983 18C6.59983 18 4.34983 17.1 2.62483 15.375C-0.900171 11.85 -0.900171 6.15 2.62483 2.625C4.34983 0.9 6.59983 0 8.99983 0C11.3998 0 13.6498 0.9 15.3748 2.625C18.8998 6.15 18.8998 11.85 15.3748 15.375C13.6498 17.1 11.3998 18 8.99983 18ZM8.99983 1.5C6.97483 1.5 5.09983 2.25 3.67483 3.675C0.749829 6.6 0.749829 11.4 3.67483 14.325C5.09983 15.75 6.97483 16.5 8.99983 16.5C11.0248 16.5 12.8998 15.75 14.3248 14.325C17.2498 11.4 17.2498 6.675 14.3248 3.75C12.8998 2.25 11.0248 1.5 8.99983 1.5Z" fill="black"/>
<path d="M8.99983 18C6.59983 18 4.34983 17.1 2.62483 15.375C-0.900171 11.85 -0.900171 6.15 2.62483 2.625C4.34983 0.9 6.59983 0 8.99983 0C11.3998 0 13.6498 0.9 15.3748 2.625C18.8998 6.15 18.8998 11.85 15.3748 15.375C13.6498 17.1 11.3998 18 8.99983 18ZM8.99983 1.5C6.97483 1.5 5.09983 2.25 3.67483 3.675C0.749829 6.6 0.749829 11.4 3.67483 14.325C5.09983 15.75 6.97483 16.5 8.99983 16.5C11.0248 16.5 12.8998 15.75 14.3248 14.325C17.2498 11.4 17.2498 6.675 14.3248 3.75C12.8998 2.25 11.0248 1.5 8.99983 1.5Z" fill="white"/>
<path d="M9 13.5C8.55 13.5 8.25 13.2 8.25 12.75V5.25C8.25 4.8 8.55 4.5 9 4.5C9.45 4.5 9.75 4.8 9.75 5.25V12.75C9.75 13.2 9.45 13.5 9 13.5Z" fill="black"/>
<path d="M9 13.5C8.55 13.5 8.25 13.2 8.25 12.75V5.25C8.25 4.8 8.55 4.5 9 4.5C9.45 4.5 9.75 4.8 9.75 5.25V12.75C9.75 13.2 9.45 13.5 9 13.5Z" fill="white"/>
<path d="M12.75 9.75H5.25C4.8 9.75 4.5 9.45 4.5 9C4.5 8.55 4.8 8.25 5.25 8.25H12.75C13.2 8.25 13.5 8.55 13.5 9C13.5 9.45 13.2 9.75 12.75 9.75Z" fill="black"/>
<path d="M12.75 9.75H5.25C4.8 9.75 4.5 9.45 4.5 9C4.5 8.55 4.8 8.25 5.25 8.25H12.75C13.2 8.25 13.5 8.55 13.5 9C13.5 9.45 13.2 9.75 12.75 9.75Z" fill="white"/>
</g>
<defs>
<clipPath id="clip0_84_233">
<path d="M0 0H18V9C18 13.9706 13.9706 18 9 18C4.02944 18 0 13.9706 0 9V0Z" fill="white"/>
</clipPath>
</defs>
</svg>
